<svg width="512" height="512" viewBox="0 0 512 512" fill="none" xmlns="http://www.w3.org/2000/svg">
  <defs>
    <filter id="shadow" x="0" y="0" width="512" height="512" filterUnits="userSpaceOnUse">
      <feOffset dy="6"/>
      <feGaussianBlur stdDeviation="10" result="blur"/>
      <feColorMatrix in="blur" type="matrix" values="0 0 0 0 0.28 0 0 0 0 0.28 0 0 0 0 0.28 0 0 0 0.22 0"/>
      <feBlend in="SourceGraphic"/>
    </filter>
  </defs>
  <g filter="url(#shadow)">
    <path
      d="M256 36C136.7 36 40 132.7 40 252c0 42.3 12.2 83.5 35.4 118.8L52 452l84.7-22c35 19.1 74.3 29 114.3 29 119.3 0 216-96.7 216-216S375.3 36 256 36Z"
      fill="white"
      stroke="#CFCFCF"
      stroke-width="16"
      stroke-linejoin="round"
    />
    <circle cx="256" cy="248" r="178" fill="#4ECB57"/>
    <path
      d="M350.2 306.2c-3.7 10.3-21.6 19.7-30.2 21-7.8 1.1-17.6 1.6-28.4-1.9-6.5-2.1-14.9-4.9-25.7-9.6-45.2-19.5-74.6-65.2-76.9-68.2-2.2-3-18.3-24.4-18.3-46.6 0-22.2 11.6-33 15.8-37.5 4.1-4.5 9-5.6 12-5.6 3 0 6 0 8.6.1 2.8.1 6.6-1.1 10.4 8.1 3.9 9.4 13.1 32.1 14.3 34.4 1.1 2.2 1.9 4.8.4 7.8-1.5 3-2.2 4.8-4.5 7.4-2.2 2.6-4.7 5.8-6.7 7.8-2.2 2.2-4.5 4.6-1.9 9 2.6 4.5 11.5 18.9 24.7 30.6 17 15.2 31.3 19.9 35.8 22.1 4.5 2.2 7.1 1.9 9.7-1.1 2.6-3 11.2-13.1 14.2-17.6 3-4.5 6-3.7 10.1-2.2 4.1 1.5 26.1 12.3 30.6 14.6 4.5 2.2 7.5 3.4 8.6 5.2 1.1 1.9 1.1 10.8-2.6 21.1Z"
      fill="white"
    />
  </g>
</svg>
